<?xml version="1.0" encoding="UTF-8"?>
<svg xmlns="http://www.w3.org/2000/svg" version="1.1" viewBox="0 0 382.68 128.73">
  <defs>
    <style>
      .cls-1 {
        font-family: MyriadPro-Regular, 'Myriad Pro';
      }

      .cls-1, .cls-2, .cls-3 {
        fill: #000;
      }

      .cls-1, .cls-3, .cls-4 {
        font-size: 7px;
      }

      .cls-2, .cls-5, .cls-6 {
        stroke-width: 0px;
      }

      .cls-7 {
        stroke: #b942e5;
        stroke-width: .75px;
      }

      .cls-7, .cls-8, .cls-9, .cls-10, .cls-11 {
        stroke-miterlimit: 10;
      }

      .cls-7, .cls-9, .cls-10, .cls-11 {
        fill: none;
      }

      .cls-8, .cls-9, .cls-10, .cls-12 {
        stroke: #000;
      }

      .cls-8, .cls-9, .cls-12 {
        stroke-width: .5px;
      }

      .cls-8, .cls-12, .cls-4 {
        fill: #fff;
      }

      .cls-5 {
        fill: #b2b2b2;
      }

      .cls-10 {
        stroke-width: .25px;
      }

      .cls-6 {
        fill: #b942e5;
      }

      .cls-11 {
        stroke: #4473c4;
        stroke-width: 4px;
      }

      .cls-12 {
        stroke-linecap: square;
        stroke-linejoin: round;
      }

      .cls-3, .cls-4 {
        font-family: MyriadPro-Semibold, 'Myriad Pro';
        font-weight: 600;
      }
    </style>
  </defs>
  <g id="Panel_b" data-name="Panel b">
    <g>
      <rect class="cls-5" x="272.69" y="88.45" width="70.87" height="4.25"/>
      <rect class="cls-5" x="272.68" y="116.8" width="70.87" height="4.25"/>
      <path class="cls-2" d="M274.81,117.51c.78,0,1.41.63,1.41,1.41s-.63,1.41-1.41,1.41-1.41-.63-1.41-1.41.63-1.41,1.41-1.41Z"/>
      <path class="cls-2" d="M274.81,91.99c.78,0,1.41-.63,1.41-1.41s-.63-1.41-1.41-1.41-1.41.63-1.41,1.41.63,1.41,1.41,1.41Z"/>
      <path class="cls-2" d="M341.43,91.99c-.78,0-1.41-.63-1.41-1.41s.63-1.41,1.41-1.41,1.41.63,1.41,1.41-.63,1.41-1.41,1.41Z"/>
      <path class="cls-2" d="M341.43,117.51c-.78,0-1.41.63-1.41,1.41s.63,1.41,1.41,1.41,1.41-.63,1.41-1.41-.63-1.41-1.41-1.41Z"/>
    </g>
    <g>
      <circle class="cls-5" cx="308.12" cy="79.24" r="4.25"/>
      <text class="cls-4" transform="translate(306.18 81.29)"><tspan x="0" y="0">2</tspan></text>
    </g>
    <g>
      <rect class="cls-5" x="272.69" y="17.59" width="70.87" height="4.25"/>
      <rect class="cls-5" x="272.68" y="45.93" width="70.87" height="4.25"/>
      <path class="cls-2" d="M274.81,46.65c.78,0,1.41.63,1.41,1.41s-.63,1.41-1.41,1.41-1.41-.63-1.41-1.41.63-1.41,1.41-1.41Z"/>
      <path class="cls-2" d="M274.81,21.12c.78,0,1.41-.63,1.41-1.41s-.63-1.41-1.41-1.41-1.41.63-1.41,1.41.63,1.41,1.41,1.41Z"/>
      <path class="cls-2" d="M341.43,21.12c-.78,0-1.41-.63-1.41-1.41s.63-1.41,1.41-1.41,1.41.63,1.41,1.41-.63,1.41-1.41,1.41Z"/>
      <path class="cls-2" d="M341.43,46.65c-.78,0-1.41.63-1.41,1.41s.63,1.41,1.41,1.41,1.41-.63,1.41-1.41-.63-1.41-1.41-1.41Z"/>
    </g>
    <g>
      <circle class="cls-5" cx="308.12" cy="8.37" r="4.25"/>
      <text class="cls-4" transform="translate(306.18 10.43)"><tspan x="0" y="0">1</tspan></text>
    </g>
    <g id="Optical_path" data-name="Optical path">
      <line class="cls-11" x1="272.68" y1="33.88" x2="343.55" y2="33.88"/>
      <line class="cls-11" x1="272.68" y1="104.75" x2="343.55" y2="104.75"/>
      <path class="cls-11" d="M343.55,33.89c19.57,0,35.43,15.86,35.43,35.43s-15.86,35.43-35.43,35.43"/>
    </g>
    <circle class="cls-6" cx="284.02" cy="33.88" r="4.25"/>
    <g>
      <line class="cls-7" x1="290.55" y1="28.43" x2="299.05" y2="28.43"/>
      <polygon class="cls-6" points="298.31 29.52 302.37 28.43 298.31 27.34 298.31 29.52"/>
    </g>
    <text class="cls-3" transform="translate(258.82 9.2)"><tspan x="0" y="0">(b)</tspan></text>
  </g>
  <g id="Panel_a" data-name="Panel a">
    <g>
      <rect class="cls-5" x="57.25" y="17.59" width="70.87" height="4.25"/>
      <rect class="cls-5" x="57.25" y="45.93" width="70.87" height="4.25"/>
    </g>
    <g>
      <circle class="cls-5" cx="92.68" cy="8.37" r="4.25"/>
      <text class="cls-4" transform="translate(90.74 10.43)"><tspan x="0" y="0">3</tspan></text>
    </g>
    <g>
      <rect class="cls-5" x="153.63" y="88.45" width="70.87" height="4.25"/>
      <rect class="cls-5" x="153.63" y="116.8" width="70.87" height="4.25"/>
    </g>
    <g>
      <circle class="cls-5" cx="189.06" cy="79.24" r="4.25"/>
      <text class="cls-4" transform="translate(187.12 81.29)"><tspan x="0" y="0">2</tspan></text>
    </g>
    <g>
      <rect class="cls-5" x="153.63" y="17.59" width="70.87" height="4.25"/>
      <rect class="cls-5" x="153.63" y="45.93" width="70.87" height="4.25"/>
    </g>
    <g>
      <circle class="cls-5" cx="189.06" cy="8.37" r="4.25"/>
      <text class="cls-4" transform="translate(187.12 10.43)"><tspan x="0" y="0">1</tspan></text>
    </g>
    <g>
      <polyline class="cls-9" points="155.76 118.92 136.62 118.92 136.62 48.06"/>
      <path class="cls-2" d="M155.76,117.51c.78,0,1.41.63,1.41,1.41s-.63,1.41-1.41,1.41-1.41-.63-1.41-1.41.63-1.41,1.41-1.41Z"/>
      <path class="cls-2" d="M137.56,48.06c0-.52-.42-.94-.94-.94s-.94.42-.94.94.42.94.94.94.94-.42.94-.94Z"/>
    </g>
    <g>
      <polyline class="cls-9" points="145.12 19.71 145.12 90.58 155.76 90.58"/>
      <path class="cls-2" d="M144.18,19.71c0-.52.42-.94.94-.94s.94.42.94.94-.42.94-.94.94-.94-.42-.94-.94Z"/>
      <path class="cls-2" d="M155.76,91.99c.78,0,1.41-.63,1.41-1.41s-.63-1.41-1.41-1.41-1.41.63-1.41,1.41.63,1.41,1.41,1.41Z"/>
    </g>
    <g>
      <line class="cls-9" x1="155.76" y1="48.06" x2="125.99" y2="48.06"/>
      <path class="cls-2" d="M155.76,46.65c.78,0,1.41.63,1.41,1.41s-.63,1.41-1.41,1.41-1.41-.63-1.41-1.41.63-1.41,1.41-1.41Z"/>
      <path class="cls-2" d="M125.99,46.65c-.78,0-1.41.63-1.41,1.41s.63,1.41,1.41,1.41,1.41-.63,1.41-1.41-.63-1.41-1.41-1.41Z"/>
    </g>
    <g>
      <line class="cls-9" x1="125.99" y1="19.71" x2="155.76" y2="19.71"/>
      <path class="cls-2" d="M125.99,21.12c-.78,0-1.41-.63-1.41-1.41s.63-1.41,1.41-1.41,1.41.63,1.41,1.41-.63,1.41-1.41,1.41Z"/>
      <path class="cls-2" d="M155.76,21.12c.78,0,1.41-.63,1.41-1.41s-.63-1.41-1.41-1.41-1.41.63-1.41,1.41.63,1.41,1.41,1.41Z"/>
    </g>
    <g>
      <polyline class="cls-9" points="59.38 48.06 21.82 48.06 21.82 19.71 21.82 19.71 59.38 19.71"/>
      <path class="cls-2" d="M59.38,46.65c.78,0,1.41.63,1.41,1.41s-.63,1.41-1.41,1.41-1.41-.63-1.41-1.41.63-1.41,1.41-1.41Z"/>
      <path class="cls-2" d="M59.38,21.12c.78,0,1.41-.63,1.41-1.41s-.63-1.41-1.41-1.41-1.41.63-1.41,1.41.63,1.41,1.41,1.41Z"/>
    </g>
    <g>
      <text class="cls-1" transform="translate(37.88 13.35)"><tspan x="0" y="0">Z</tspan></text>
      <text class="cls-1" transform="translate(41.75 15.69) scale(.58)"><tspan x="0" y="0">S</tspan></text>
      <rect class="cls-8" x="35.64" y="17.59" width="9.92" height="4.25"/>
    </g>
    <g>
      <circle class="cls-8" cx="21.82" cy="33.88" r="5.1"/>
      <path class="cls-12" d="M18.76,33.88c2.75-7.66,3.37,7.66,6.12,0"/>
      <text class="cls-1" transform="translate(5.13 35.96)"><tspan x="0" y="0">V</tspan></text>
      <text class="cls-1" transform="translate(9.03 38.29) scale(.58)"><tspan x="0" y="0">S</tspan></text>
      <g>
        <line class="cls-10" x1="13.88" y1="38.99" x2="13.88" y2="28.78"/>
        <polygon class="cls-2" points="14.43 38.61 13.88 40.65 13.34 38.61 14.43 38.61"/>
      </g>
    </g>
    <g>
      <g>
        <polyline class="cls-9" points="222.37 19.71 232.29 19.71 232.29 48.06 222.37 48.06"/>
        <path class="cls-2" d="M222.37,21.12c-.78,0-1.41-.63-1.41-1.41s.63-1.41,1.41-1.41,1.41.63,1.41,1.41-.63,1.41-1.41,1.41Z"/>
        <path class="cls-2" d="M222.37,46.65c-.78,0-1.41.63-1.41,1.41s.63,1.41,1.41,1.41,1.41-.63,1.41-1.41-.63-1.41-1.41-1.41Z"/>
      </g>
      <text class="cls-1" transform="translate(237.26 35.96)"><tspan x="0" y="0">Z</tspan></text>
      <text class="cls-1" transform="translate(241.13 38.29) scale(.58)"><tspan x="0" y="0">L</tspan></text>
      <rect class="cls-8" x="227.33" y="31.76" width="9.92" height="4.25" transform="translate(198.41 266.18) rotate(-90)"/>
    </g>
    <g>
      <g>
        <polyline class="cls-9" points="222.37 90.58 232.29 90.58 232.29 118.92 222.37 118.92"/>
        <path class="cls-2" d="M222.37,91.99c-.78,0-1.41-.63-1.41-1.41s.63-1.41,1.41-1.41,1.41.63,1.41,1.41-.63,1.41-1.41,1.41Z"/>
        <path class="cls-2" d="M222.37,117.51c-.78,0-1.41.63-1.41,1.41s.63,1.41,1.41,1.41,1.41-.63,1.41-1.41-.63-1.41-1.41-1.41Z"/>
      </g>
      <text class="cls-1" transform="translate(237.26 106.83)"><tspan x="0" y="0">Z</tspan></text>
      <text class="cls-1" transform="translate(241.13 109.16) scale(.58)"><tspan x="0" y="0">L</tspan></text>
      <rect class="cls-8" x="227.33" y="102.63" width="9.92" height="4.25" transform="translate(127.54 337.04) rotate(-90)"/>
    </g>
    <text class="cls-3" transform="translate(3.7 9.2)"><tspan x="0" y="0">(a)</tspan></text>
  </g>
</svg>