<?xml version="1.0" encoding="UTF-8"?>
<svg xmlns="http://www.w3.org/2000/svg" version="1.1" viewBox="0 0 382.68 166.91">
  <defs>
    <style>
      .cls-1 {
        letter-spacing: 0em;
      }

      .cls-1, .cls-2, .cls-3, .cls-4, .cls-5, .cls-6 {
        fill: #000;
      }

      .cls-1, .cls-2, .cls-7, .cls-8, .cls-4, .cls-5, .cls-9 {
        font-family: MyriadPro-Regular, 'Myriad Pro';
      }

      .cls-1, .cls-2, .cls-7, .cls-8, .cls-4, .cls-5, .cls-9, .cls-6 {
        font-size: 7px;
      }

      .cls-10 {
        letter-spacing: 0em;
      }

      .cls-11, .cls-3, .cls-12, .cls-13, .cls-14 {
        stroke-width: 0px;
      }

      .cls-11, .cls-8 {
        fill: #3e9934;
      }

      .cls-15 {
        stroke-linecap: round;
      }

      .cls-15, .cls-16, .cls-17, .cls-18, .cls-19, .cls-20, .cls-21 {
        fill: none;
      }

      .cls-15, .cls-16, .cls-22, .cls-18, .cls-19, .cls-20, .cls-21 {
        stroke-miterlimit: 10;
      }

      .cls-15, .cls-17, .cls-22, .cls-18 {
        stroke: #000;
        stroke-width: .5px;
      }

      .cls-23 {
        letter-spacing: -.07em;
      }

      .cls-16 {
        stroke: #b942e5;
        stroke-width: .75px;
      }

      .cls-7 {
        letter-spacing: 0em;
      }

      .cls-7, .cls-13, .cls-9 {
        fill: #2c4c7c;
      }

      .cls-24 {
        letter-spacing: -.07em;
      }

      .cls-4 {
        letter-spacing: 0em;
      }

      .cls-22 {
        fill: #fff;
      }

      .cls-12 {
        fill: #b2b2b2;
      }

      .cls-5 {
        letter-spacing: 0em;
      }

      .cls-19 {
        stroke: #2c4c7c;
      }

      .cls-19, .cls-21 {
        stroke-width: 1.5px;
      }

      .cls-25 {
        letter-spacing: 0em;
      }

      .cls-20 {
        stroke: #4473c4;
        stroke-width: 2px;
      }

      .cls-14 {
        fill: #b942e5;
      }

      .cls-6 {
        font-family: MyriadPro-Semibold, 'Myriad Pro';
        font-weight: 600;
      }

      .cls-21 {
        stroke: #3e9934;
      }
    </style>
  </defs>
  <g id="H_structure_middle" data-name="H structure middle">
    <g>
      <text class="cls-2" transform="translate(284.69 162.44)"><tspan x="0" y="0">2L</tspan></text>
      <g>
        <line class="cls-18" x1="236.4" y1="153.97" x2="339.86" y2="153.97"/>
        <rect class="cls-3" x="236.15" y="152.35" width=".5" height="3.25"/>
        <rect class="cls-3" x="339.61" y="152.35" width=".5" height="3.25"/>
      </g>
    </g>
    <g>
      <text class="cls-2" transform="translate(296.74 138.28)"><tspan x="0" y="0">(1 - x</tspan></text>
      <text class="cls-1" transform="translate(310.67 140.61) scale(.58)"><tspan x="0" y="0">L</tspan></text>
      <text class="cls-5" transform="translate(312.6 138.28)"><tspan x="0" y="0">)</tspan></text>
      <text class="cls-2" transform="translate(314.59 138.28)"><tspan class="cls-23" x="0" y="0"> </tspan><tspan x="1" y="0">·</tspan><tspan class="cls-23" x="2.45" y="0"> </tspan></text>
      <text class="cls-2" transform="translate(318.04 138.28)"><tspan x="0" y="0">L</tspan></text>
      <text class="cls-2" transform="translate(243.99 138.28)"><tspan x="0" y="0">(1 + x</tspan></text>
      <text class="cls-2" transform="translate(259.95 140.61) scale(.58)"><tspan x="0" y="0">L</tspan></text>
      <text class="cls-2" transform="translate(261.88 138.28)"><tspan x="0" y="0">)</tspan></text>
      <text class="cls-2" transform="translate(263.87 138.28)"><tspan class="cls-23" x="0" y="0"> </tspan><tspan class="cls-25" x="1" y="0">·</tspan><tspan class="cls-23" x="2.45" y="0"> </tspan></text>
      <text class="cls-4" transform="translate(267.31 138.28)"><tspan x="0" y="0">L</tspan></text>
      <g>
        <line class="cls-18" x1="236.4" y1="129.8" x2="278.21" y2="129.8"/>
        <rect class="cls-3" x="236.15" y="128.17" width=".5" height="3.25"/>
        <rect class="cls-3" x="277.96" y="128.17" width=".5" height="3.25"/>
      </g>
      <g>
        <line class="cls-18" x1="278.21" y1="129.8" x2="339.86" y2="129.8"/>
        <rect class="cls-3" x="277.96" y="128.17" width=".5" height="3.25"/>
        <rect class="cls-3" x="339.61" y="128.17" width=".5" height="3.25"/>
      </g>
    </g>
    <g id="Ring_resonator" data-name="Ring resonator">
      <path class="cls-20" d="M236.4,96.51c-19.57,0-35.43-15.86-35.43-35.43s15.86-35.43,35.43-35.43"/>
      <path class="cls-20" d="M339.87,25.64c19.57,0,35.43,15.86,35.43,35.43s-15.86,35.43-35.43,35.43"/>
      <line class="cls-20" x1="236.4" y1="96.51" x2="339.87" y2="96.51"/>
      <line class="cls-20" x1="236.4" y1="25.64" x2="339.87" y2="25.64"/>
      <text class="cls-9" transform="translate(364.02 73.72) rotate(-90)"><tspan x="0" y="0">(1</tspan><tspan class="cls-24" x="5.58" y="0"> </tspan><tspan x="6.58" y="0">-</tspan><tspan class="cls-24" x="8.73" y="0"> </tspan><tspan x="9.73" y="0">x</tspan></text>
      <text class="cls-9" transform="translate(366.35 60.76) rotate(-90) scale(.58)"><tspan x="0" y="0">d</tspan></text>
      <text class="cls-9" transform="translate(364.02 58.45) rotate(-90)"><tspan class="cls-10" x="0" y="0">)</tspan><tspan class="cls-24" x="1.99" y="0"> </tspan><tspan x="2.99" y="0">·</tspan><tspan class="cls-24" x="4.44" y="0"> </tspan><tspan x="5.44" y="0">t</tspan></text>
      <text class="cls-7" transform="translate(366.35 50.7) rotate(-90) scale(.58)"><tspan x="0" y="0">d</tspan></text>
      <text class="cls-9" transform="translate(215.36 74.73) rotate(-90)"><tspan x="0" y="0">(1</tspan><tspan class="cls-24" x="5.58" y="0"> </tspan><tspan x="6.58" y="0">+</tspan><tspan class="cls-24" x="10.75" y="0"> </tspan><tspan x="11.75" y="0">x</tspan></text>
      <text class="cls-7" transform="translate(217.69 59.74) rotate(-90) scale(.58)"><tspan x="0" y="0">d</tspan></text>
      <text class="cls-9" transform="translate(215.36 57.44) rotate(-90)"><tspan x="0" y="0">)</tspan><tspan class="cls-24" x="1.99" y="0"> </tspan><tspan x="2.99" y="0">·</tspan><tspan class="cls-24" x="4.44" y="0"> </tspan><tspan x="5.44" y="0">t</tspan></text>
      <text class="cls-7" transform="translate(217.69 49.69) rotate(-90) scale(.58)"><tspan x="0" y="0">d</tspan></text>
    </g>
    <g id="Wave_packet" data-name="Wave packet">
      <circle class="cls-14" cx="200.97" cy="61.08" r="2.83"/>
      <g>
        <path class="cls-16" d="M197.01,55.54c.32-2.32.85-4.58,1.55-6.76"/>
        <polygon class="cls-14" points="199.37 49.83 199.59 45.63 197.3 49.16 199.37 49.83"/>
      </g>
      <g>
        <path class="cls-16" d="M197.01,66.61c.32,2.32.85,4.58,1.55,6.76"/>
        <polygon class="cls-14" points="197.3 73 199.59 76.53 199.37 72.33 197.3 73"/>
      </g>
    </g>
    <g id="Electrical_schematic" data-name="Electrical schematic">
      <g id="Transmission_line" data-name="Transmission line">
        <rect class="cls-12" x="236.4" y="85.88" width="103.46" height="4.25"/>
        <rect class="cls-12" x="236.4" y="102.89" width="103.46" height="4.25"/>
        <g>
          <line class="cls-21" x1="316.12" y1="98.95" x2="316.12" y2="90.84"/>
          <polygon class="cls-11" points="318.37 98.29 316.12 102.18 313.88 98.29 318.37 98.29"/>
        </g>
        <g>
          <line class="cls-19" x1="301.95" y1="102.18" x2="301.95" y2="94.07"/>
          <polygon class="cls-13" points="304.19 94.73 301.95 90.84 299.71 94.73 304.19 94.73"/>
        </g>
        <text class="cls-2" transform="translate(292.72 81.5)"><tspan x="0" y="0">antiparallel</tspan></text>
      </g>
      <g id="Transmission_line-2" data-name="Transmission line">
        <rect class="cls-12" x="236.4" y="15.01" width="103.46" height="4.25"/>
        <rect class="cls-12" x="236.4" y="32.02" width="103.46" height="4.25"/>
        <text class="cls-8" transform="translate(313.96 12.56)"><tspan x="0" y="0">V</tspan></text>
        <g>
          <line class="cls-21" x1="315.93" y1="31.31" x2="315.93" y2="23.2"/>
          <polygon class="cls-11" points="318.17 23.86 315.93 19.97 313.68 23.86 318.17 23.86"/>
        </g>
        <g>
          <line class="cls-19" x1="301.75" y1="31.31" x2="301.75" y2="23.2"/>
          <polygon class="cls-13" points="304 23.86 301.75 19.97 299.51 23.86 304 23.86"/>
        </g>
        <text class="cls-9" transform="translate(300.19 12.56)"><tspan x="0" y="0">c</tspan></text>
        <text class="cls-2" transform="translate(298.32 45.01)"><tspan x="0" y="0">parallel</tspan></text>
      </g>
      <g>
        <line class="cls-17" x1="280.34" y1="115.64" x2="276.09" y2="115.64"/>
        <line class="cls-17" x1="279.66" y1="117.06" x2="276.77" y2="117.06"/>
        <line class="cls-17" x1="278.98" y1="118.48" x2="277.45" y2="118.48"/>
        <g>
          <line class="cls-18" x1="278.21" y1="105.01" x2="278.21" y2="115.64"/>
          <path class="cls-3" d="M276.8,105.01c0-.78.63-1.41,1.41-1.41.78,0,1.41.63,1.41,1.41,0,.78-.63,1.41-1.41,1.41s-1.41-.63-1.41-1.41Z"/>
        </g>
      </g>
      <g>
        <line class="cls-17" x1="276.09" y1="6.51" x2="280.34" y2="6.51"/>
        <line class="cls-17" x1="276.77" y1="5.09" x2="279.66" y2="5.09"/>
        <line class="cls-17" x1="277.45" y1="3.68" x2="278.98" y2="3.68"/>
        <g>
          <line class="cls-18" x1="278.21" y1="17.14" x2="278.21" y2="6.51"/>
          <path class="cls-3" d="M279.62,17.14c0,.78-.63,1.41-1.41,1.41-.78,0-1.41-.63-1.41-1.41s.63-1.41,1.41-1.41,1.41.63,1.41,1.41Z"/>
        </g>
      </g>
      <g>
        <g>
          <line class="cls-15" x1="267.58" y1="61.08" x2="278.21" y2="61.08"/>
          <path class="cls-3" d="M267.58,62.02c-.52,0-.94-.42-.94-.94s.42-.94.94-.94.94.42.94.94-.42.94-.94.94Z"/>
        </g>
        <g>
          <line class="cls-18" x1="278.21" y1="34.15" x2="278.21" y2="88.01"/>
          <path class="cls-3" d="M276.8,34.15c0-.78.63-1.41,1.41-1.41s1.41.63,1.41,1.41-.63,1.41-1.41,1.41-1.41-.63-1.41-1.41Z"/>
          <path class="cls-3" d="M276.8,88.01c0,.78.63,1.41,1.41,1.41s1.41-.63,1.41-1.41-.63-1.41-1.41-1.41-1.41.63-1.41,1.41Z"/>
        </g>
      </g>
      <g id="Termination">
        <g>
          <polyline class="cls-18" points="337.74 17.14 347.66 17.14 347.66 34.15 337.74 34.15"/>
          <path class="cls-3" d="M337.74,18.55c-.78,0-1.41-.63-1.41-1.41s.63-1.41,1.41-1.41,1.41.63,1.41,1.41-.63,1.41-1.41,1.41Z"/>
          <path class="cls-3" d="M337.74,32.74c-.78,0-1.41.63-1.41,1.41s.63,1.41,1.41,1.41,1.41-.63,1.41-1.41-.63-1.41-1.41-1.41Z"/>
        </g>
        <text class="cls-2" transform="translate(352.63 22.74)"><tspan x="0" y="0">Z</tspan></text>
        <text class="cls-2" transform="translate(356.5 25.07) scale(.58)"><tspan x="0" y="0">L,b</tspan></text>
        <rect class="cls-22" x="342.7" y="23.52" width="9.92" height="4.25" transform="translate(322.02 373.31) rotate(-90)"/>
      </g>
      <g id="Termination-2" data-name="Termination">
        <g>
          <polyline class="cls-18" points="337.74 88.01 347.66 88.01 347.66 105.01 337.74 105.01"/>
          <path class="cls-3" d="M337.74,89.42c-.78,0-1.41-.63-1.41-1.41s.63-1.41,1.41-1.41,1.41.63,1.41,1.41-.63,1.41-1.41,1.41Z"/>
          <path class="cls-3" d="M337.74,103.6c-.78,0-1.41.63-1.41,1.41s.63,1.41,1.41,1.41,1.41-.63,1.41-1.41-.63-1.41-1.41-1.41Z"/>
        </g>
        <text class="cls-2" transform="translate(352.63 103.53)"><tspan x="0" y="0">Z</tspan></text>
        <text class="cls-2" transform="translate(356.5 105.86) scale(.58)"><tspan x="0" y="0">L,b</tspan></text>
        <rect class="cls-22" x="342.7" y="94.38" width="9.92" height="4.25" transform="translate(251.15 444.17) rotate(-90)"/>
      </g>
      <g id="Termination-3" data-name="Termination">
        <text class="cls-2" transform="translate(215.67 103.53)"><tspan x="0" y="0">Z</tspan></text>
        <text class="cls-2" transform="translate(219.54 105.86) scale(.58)"><tspan x="0" y="0">L,a</tspan></text>
        <g>
          <polyline class="cls-18" points="238.52 88.01 228.6 88.01 228.6 105.01 238.52 105.01"/>
          <path class="cls-3" d="M238.52,86.6c.78,0,1.41.63,1.41,1.41s-.63,1.41-1.41,1.41-1.41-.63-1.41-1.41.63-1.41,1.41-1.41Z"/>
          <path class="cls-3" d="M238.52,106.42c.78,0,1.41-.63,1.41-1.41s-.63-1.41-1.41-1.41-1.41.63-1.41,1.41.63,1.41,1.41,1.41Z"/>
        </g>
        <rect class="cls-22" x="223.64" y="94.38" width="9.92" height="4.25" transform="translate(132.09 325.11) rotate(-90)"/>
      </g>
      <g id="Termination-4" data-name="Termination">
        <g>
          <polyline class="cls-18" points="238.52 17.14 228.6 17.14 228.6 34.15 238.52 34.15"/>
          <path class="cls-3" d="M238.52,15.73c.78,0,1.41.63,1.41,1.41s-.63,1.41-1.41,1.41-1.41-.63-1.41-1.41.63-1.41,1.41-1.41Z"/>
          <path class="cls-3" d="M238.52,35.56c.78,0,1.41-.63,1.41-1.41s-.63-1.41-1.41-1.41-1.41.63-1.41,1.41.63,1.41,1.41,1.41Z"/>
        </g>
        <rect class="cls-22" x="223.64" y="23.52" width="9.92" height="4.25" transform="translate(202.96 254.25) rotate(-90)"/>
        <text class="cls-2" transform="translate(215.67 22.74)"><tspan x="0" y="0">Z</tspan></text>
        <text class="cls-2" transform="translate(219.54 25.07) scale(.58)"><tspan x="0" y="0">L,a</tspan></text>
      </g>
    </g>
    <text class="cls-6" transform="translate(195.52 9.34)"><tspan x="0" y="0">(b)</tspan></text>
    <text class="cls-6" transform="translate(3.82 9.34)"><tspan x="0" y="0">(a)</tspan></text>
  </g>
  <g id="H_structure_side" data-name="H structure side">
    <g>
      <text class="cls-2" transform="translate(92.62 138.29)"><tspan x="0" y="0">L</tspan></text>
      <g>
        <line class="cls-18" x1="42.52" y1="129.77" x2="145.98" y2="129.77"/>
        <rect class="cls-3" x="42.27" y="128.15" width=".5" height="3.25"/>
        <rect class="cls-3" x="145.73" y="128.15" width=".5" height="3.25"/>
      </g>
    </g>
    <g id="Ring_resonator-2" data-name="Ring resonator">
      <path class="cls-20" d="M42.52,96.5c-19.57,0-35.43-15.86-35.43-35.43S22.95,25.64,42.52,25.64"/>
      <path class="cls-20" d="M145.98,25.64c19.57,0,35.43,15.86,35.43,35.43s-15.86,35.43-35.43,35.43"/>
      <line class="cls-20" x1="42.52" y1="96.5" x2="145.98" y2="96.5"/>
      <line class="cls-20" x1="42.52" y1="25.64" x2="145.98" y2="25.64"/>
      <text class="cls-9" transform="translate(170.16 73.71) rotate(-90)"><tspan x="0" y="0">(1</tspan><tspan class="cls-24" x="5.58" y="0"> </tspan><tspan x="6.58" y="0">-</tspan><tspan class="cls-24" x="8.73" y="0"> </tspan><tspan x="9.73" y="0">x</tspan></text>
      <text class="cls-9" transform="translate(172.49 60.74) rotate(-90) scale(.58)"><tspan x="0" y="0">d</tspan></text>
      <text class="cls-9" transform="translate(170.16 58.44) rotate(-90)"><tspan class="cls-10" x="0" y="0">)</tspan><tspan class="cls-24" x="1.99" y="0"> </tspan><tspan x="2.99" y="0">·</tspan><tspan class="cls-24" x="4.44" y="0"> </tspan><tspan x="5.44" y="0">t</tspan></text>
      <text class="cls-7" transform="translate(172.49 50.69) rotate(-90) scale(.58)"><tspan x="0" y="0">d</tspan></text>
      <text class="cls-9" transform="translate(21.5 74.72) rotate(-90)"><tspan x="0" y="0">(1</tspan><tspan class="cls-24" x="5.58" y="0"> </tspan><tspan x="6.58" y="0">+</tspan><tspan class="cls-24" x="10.75" y="0"> </tspan><tspan x="11.75" y="0">x</tspan></text>
      <text class="cls-7" transform="translate(23.83 59.73) rotate(-90) scale(.58)"><tspan x="0" y="0">d</tspan></text>
      <text class="cls-9" transform="translate(21.5 57.43) rotate(-90)"><tspan x="0" y="0">)</tspan><tspan class="cls-24" x="1.99" y="0"> </tspan><tspan x="2.99" y="0">·</tspan><tspan class="cls-24" x="4.44" y="0"> </tspan><tspan x="5.44" y="0">t</tspan></text>
      <text class="cls-7" transform="translate(23.83 49.68) rotate(-90) scale(.58)"><tspan x="0" y="0">d</tspan></text>
    </g>
    <g id="Wave_packet-2" data-name="Wave packet">
      <circle class="cls-14" cx="181.42" cy="61.07" r="2.83"/>
      <g>
        <path class="cls-16" d="M185.38,55.54c-.32-2.32-.85-4.58-1.55-6.76"/>
        <polygon class="cls-14" points="185.09 49.15 182.8 45.62 183.02 49.82 185.09 49.15"/>
      </g>
      <g>
        <path class="cls-16" d="M185.38,66.6c-.32,2.32-.85,4.58-1.55,6.76"/>
        <polygon class="cls-14" points="183.02 72.32 182.8 76.52 185.09 72.99 183.02 72.32"/>
      </g>
    </g>
    <g id="Wave_packet-3" data-name="Wave packet">
      <circle class="cls-14" cx="7.09" cy="61.07" r="2.83"/>
      <g>
        <path class="cls-16" d="M3.13,55.54c.32-2.32.85-4.58,1.55-6.76"/>
        <polygon class="cls-14" points="5.49 49.82 5.71 45.62 3.42 49.15 5.49 49.82"/>
      </g>
      <g>
        <path class="cls-16" d="M3.13,66.6c.32,2.32.85,4.58,1.55,6.76"/>
        <polygon class="cls-14" points="3.42 72.99 5.71 76.52 5.49 72.32 3.42 72.99"/>
      </g>
    </g>
    <g id="Electrical_schematic-2" data-name="Electrical schematic">
      <g id="Transmission_line-3" data-name="Transmission line">
        <rect class="cls-12" x="42.52" y="85.87" width="103.46" height="4.25"/>
        <rect class="cls-12" x="42.52" y="102.88" width="103.46" height="4.25"/>
        <g>
          <line class="cls-21" x1="101.14" y1="98.94" x2="101.14" y2="90.83"/>
          <polygon class="cls-11" points="103.38 98.29 101.14 102.17 98.9 98.29 103.38 98.29"/>
        </g>
        <g>
          <line class="cls-19" x1="86.97" y1="102.17" x2="86.97" y2="94.06"/>
          <polygon class="cls-13" points="89.21 94.72 86.97 90.83 84.72 94.72 89.21 94.72"/>
        </g>
        <text class="cls-2" transform="translate(77.96 81.5)"><tspan x="0" y="0">antiparallel</tspan></text>
      </g>
      <g id="Transmission_line-4" data-name="Transmission line">
        <rect class="cls-12" x="42.52" y="15.01" width="103.46" height="4.25"/>
        <rect class="cls-12" x="42.52" y="32.02" width="103.46" height="4.25"/>
        <text class="cls-8" transform="translate(99.2 12.56)"><tspan x="0" y="0">V</tspan></text>
        <g>
          <line class="cls-21" x1="101.14" y1="31.31" x2="101.14" y2="23.2"/>
          <polygon class="cls-11" points="103.38 23.85 101.14 19.97 98.9 23.85 103.38 23.85"/>
        </g>
        <g>
          <line class="cls-19" x1="86.97" y1="31.31" x2="86.97" y2="23.2"/>
          <polygon class="cls-13" points="89.21 23.85 86.97 19.97 84.72 23.85 89.21 23.85"/>
        </g>
        <text class="cls-9" transform="translate(85.42 12.56)"><tspan x="0" y="0">c</tspan></text>
        <text class="cls-2" transform="translate(83.56 45.02)"><tspan x="0" y="0">parallel</tspan></text>
      </g>
      <g>
        <line class="cls-17" x1="34.02" y1="107.13" x2="34.02" y2="102.88"/>
        <line class="cls-17" x1="32.6" y1="106.45" x2="32.6" y2="103.56"/>
        <line class="cls-17" x1="31.18" y1="105.77" x2="31.18" y2="104.24"/>
        <g>
          <line class="cls-18" x1="44.65" y1="105.01" x2="34.02" y2="105.01"/>
          <path class="cls-3" d="M44.65,103.6c.78,0,1.41.63,1.41,1.41s-.63,1.41-1.41,1.41-1.41-.63-1.41-1.41.63-1.41,1.41-1.41Z"/>
        </g>
      </g>
      <g>
        <line class="cls-17" x1="34.02" y1="19.26" x2="34.02" y2="15.01"/>
        <line class="cls-17" x1="32.6" y1="18.58" x2="32.6" y2="15.69"/>
        <line class="cls-17" x1="31.18" y1="17.9" x2="31.18" y2="16.37"/>
        <g>
          <line class="cls-18" x1="44.65" y1="17.13" x2="34.02" y2="17.13"/>
          <path class="cls-3" d="M44.65,15.72c.78,0,1.41.63,1.41,1.41s-.63,1.41-1.41,1.41c-.78,0-1.41-.63-1.41-1.41,0-.78.63-1.41,1.41-1.41Z"/>
        </g>
      </g>
      <g>
        <g>
          <line class="cls-15" x1="34.02" y1="61.07" x2="44.64" y2="61.07"/>
          <path class="cls-3" d="M34.02,62.01c-.52,0-.94-.42-.94-.94s.42-.94.94-.94.94.42.94.94-.42.94-.94.94Z"/>
        </g>
        <g>
          <line class="cls-18" x1="44.65" y1="34.14" x2="44.65" y2="88"/>
          <path class="cls-3" d="M43.24,34.14c0-.78.63-1.41,1.41-1.41s1.41.63,1.41,1.41-.63,1.41-1.41,1.41-1.41-.63-1.41-1.41Z"/>
          <circle class="cls-3" cx="44.65" cy="88" r="1.41"/>
        </g>
      </g>
      <g id="Termination-5" data-name="Termination">
        <g>
          <polyline class="cls-18" points="143.86 88 153.78 88 153.78 105.01 143.86 105.01"/>
          <path class="cls-3" d="M143.86,89.41c-.78,0-1.41-.63-1.41-1.41s.63-1.41,1.41-1.41,1.41.63,1.41,1.41-.63,1.41-1.41,1.41Z"/>
          <path class="cls-3" d="M143.86,103.6c-.78,0-1.41.63-1.41,1.41s.63,1.41,1.41,1.41,1.41-.63,1.41-1.41-.63-1.41-1.41-1.41Z"/>
        </g>
        <text class="cls-2" transform="translate(158.77 103.53)"><tspan x="0" y="0">Z</tspan></text>
        <text class="cls-2" transform="translate(162.64 105.86) scale(.58)"><tspan x="0" y="0">L</tspan></text>
        <rect class="cls-22" x="148.82" y="94.38" width="9.92" height="4.25" transform="translate(57.28 250.28) rotate(-90)"/>
      </g>
      <g id="Termination-6" data-name="Termination">
        <g>
          <polyline class="cls-18" points="143.86 17.13 153.78 17.13 153.78 34.14 143.86 34.14"/>
          <path class="cls-3" d="M143.86,18.54c-.78,0-1.41-.63-1.41-1.41s.63-1.41,1.41-1.41,1.41.63,1.41,1.41-.63,1.41-1.41,1.41Z"/>
          <path class="cls-3" d="M143.86,32.73c-.78,0-1.41.63-1.41,1.41s.63,1.41,1.41,1.41,1.41-.63,1.41-1.41-.63-1.41-1.41-1.41Z"/>
        </g>
        <text class="cls-2" transform="translate(158.77 22.75)"><tspan x="0" y="0">Z</tspan></text>
        <text class="cls-2" transform="translate(162.64 25.08) scale(.58)"><tspan x="0" y="0">L</tspan></text>
        <rect class="cls-22" x="148.82" y="23.51" width="9.92" height="4.25" transform="translate(128.14 179.42) rotate(-90)"/>
      </g>
    </g>
  </g>
</svg>